<svg width="145" height="32" viewBox="0 0 145 32" fill="none" xmlns="http://www.w3.org/2000/svg">
<path d="M42.1219 1.78299C50.4568 1.78299 56.6171 8.13652 56.6171 16.311C56.6171 24.6492 50.4634 31.2057 42.1285 31.2057C33.7935 31.2057 27.6398 24.6557 27.6398 16.311C27.6332 8.13652 33.823 1.78299 42.1219 1.78299ZM42.1219 28.5726C48.7997 28.5726 53.6958 23.2311 53.6958 16.311C53.6958 9.55133 48.7833 4.41283 42.1219 4.41283C35.4605 4.41283 30.5447 9.55133 30.5447 16.311C30.5447 23.2311 35.4834 28.5726 42.1219 28.5726Z" fill="#637280"/>
<path d="M61.6279 11.3789C61.6129 11.2422 61.6288 11.1039 61.6743 10.9741C61.7198 10.8444 61.7938 10.7265 61.8909 10.6291C61.988 10.5317 62.1057 10.4573 62.2353 10.4113C62.3649 10.3654 62.5031 10.3491 62.6399 10.3636H63.3702C63.5051 10.3513 63.6411 10.3694 63.7682 10.4166C63.8952 10.4638 64.0101 10.5388 64.1043 10.6362C64.1986 10.7336 64.2698 10.8508 64.3128 10.9794C64.3558 11.1079 64.3694 11.2444 64.3527 11.3789V13.7238C64.3523 14.214 64.2985 14.7026 64.1922 15.1812H64.2708C64.9836 13.5994 66.1385 12.2573 67.5963 11.3166C69.0542 10.3759 70.7528 9.87662 72.4878 9.87891C77.5477 9.87891 79.3294 12.7544 79.3294 17.7717V29.719C79.3444 29.8555 79.3286 29.9937 79.2831 30.1234C79.2375 30.253 79.1634 30.3707 79.0663 30.4679C78.9691 30.565 78.8514 30.6391 78.7218 30.6847C78.5921 30.7302 78.4539 30.746 78.3174 30.7309H77.5477C76.8927 30.7309 76.5652 30.3674 76.5652 29.719V18.4955C76.5652 15.2991 76.0412 12.4662 72.1145 12.4662C67.7849 12.4662 64.3854 16.0294 64.3854 20.7618V29.719C64.3854 30.374 64.0579 30.7309 63.4029 30.7309H62.6333C62.4973 30.7449 62.3598 30.7283 62.231 30.6823C62.1022 30.6363 61.9853 30.5621 61.8889 30.4651C61.7925 30.368 61.7191 30.2507 61.6739 30.1216C61.6287 29.9925 61.613 29.8549 61.6279 29.719V11.3789Z" fill="#637280"/>
<path d="M85.3063 3.27972C85.3063 2.62472 85.6338 2.26774 86.2888 2.26774H87.0584C87.1939 2.25479 87.3307 2.27218 87.4586 2.31865C87.5866 2.36512 87.7026 2.4395 87.7983 2.5364C87.8939 2.6333 87.9668 2.75029 88.0116 2.87886C88.0564 3.00743 88.072 3.14437 88.0573 3.27972V25.4156C88.0573 27.9668 89.2723 28.2485 90.1631 28.3631C90.2796 28.3587 90.3957 28.3794 90.5036 28.4238C90.6114 28.4681 90.7085 28.5351 90.7883 28.6201C90.8681 28.7052 90.9287 28.8063 90.966 28.9168C91.0034 29.0272 91.0166 29.1444 91.0048 29.2604V29.8696C91.0048 30.4755 90.7199 30.8816 89.9535 30.8816C88.2931 30.8816 85.2997 30.3543 85.2997 25.9035L85.3063 3.27972Z" fill="#637280"/>
<path d="M95.1412 11.3787C95.1257 11.2422 95.141 11.104 95.1861 10.9742C95.2313 10.8444 95.305 10.7264 95.4018 10.629C95.4986 10.5315 95.6161 10.457 95.7456 10.4111C95.8751 10.3651 96.0132 10.3489 96.1499 10.3635H96.9195C97.5745 10.3635 97.902 10.7303 97.902 11.3787V29.7188C97.902 30.3738 97.5745 30.7308 96.9195 30.7308H96.1499C96.0135 30.7453 95.8757 30.7291 95.7465 30.6834C95.6173 30.6376 95.5 30.5634 95.4032 30.4663C95.3064 30.3693 95.2326 30.2517 95.1873 30.1223C95.1419 29.993 95.1262 29.8551 95.1412 29.7188V11.3787Z" fill="#637280"/>
<path d="M104.164 11.3788C104.149 11.2421 104.165 11.1038 104.21 10.974C104.256 10.8443 104.33 10.7264 104.427 10.629C104.524 10.5316 104.642 10.4572 104.771 10.4113C104.901 10.3653 105.039 10.349 105.176 10.3635H105.906C106.041 10.3512 106.177 10.3693 106.304 10.4165C106.431 10.4637 106.546 10.5387 106.64 10.6361C106.735 10.7335 106.806 10.8507 106.849 10.9793C106.892 11.1078 106.905 11.2443 106.889 11.3788V13.7237C106.887 14.2129 106.832 14.7005 106.725 15.1778H106.807C107.518 13.5973 108.67 12.2559 110.126 11.3152C111.581 10.3745 113.278 9.87456 115.011 9.87555C120.071 9.87555 121.852 12.751 121.852 17.7683V29.7189C121.867 29.8556 121.85 29.9939 121.804 30.1235C121.759 30.2531 121.684 30.3708 121.587 30.4678C121.489 30.5649 121.371 30.6389 121.242 30.6844C121.112 30.73 120.974 30.7458 120.837 30.7309H120.071C119.416 30.7309 119.088 30.3673 119.088 29.7189V18.4954C119.088 15.299 118.564 12.4661 114.637 12.4661C110.308 12.4661 106.908 16.0293 106.908 20.7617V29.7189C106.908 30.3739 106.581 30.7309 105.926 30.7309H105.156C105.02 30.7459 104.881 30.7301 104.752 30.6846C104.622 30.639 104.504 30.565 104.407 30.4678C104.31 30.3706 104.236 30.2529 104.19 30.1233C104.145 29.9937 104.129 29.8554 104.144 29.7189L104.164 11.3788Z" fill="#637280"/>
<path d="M136.501 9.87555C141.925 9.87555 145 13.8056 145 19.5893C145 19.7255 144.973 19.8604 144.919 19.9858C144.866 20.1112 144.788 20.2246 144.69 20.3191C144.592 20.4136 144.475 20.4873 144.348 20.5358C144.221 20.5843 144.085 20.6065 143.949 20.6012H129.3C129.421 25.7889 132.981 28.7364 137.183 28.7364C139.121 28.727 141.001 28.0712 142.524 26.8729C143.091 26.5094 143.539 26.5912 143.86 27.1185L144.188 27.6032C144.26 27.7086 144.309 27.8275 144.334 27.9526C144.359 28.0777 144.358 28.2065 144.332 28.3313C144.305 28.4562 144.254 28.5744 144.181 28.6788C144.108 28.7833 144.014 28.872 143.906 28.9394C141.935 30.3934 139.554 31.1867 137.104 31.2057C131.035 31.2057 126.46 26.8336 126.46 20.5619C126.463 13.8842 130.996 9.87555 136.501 9.87555ZM142.21 18.538C142.046 14.2477 139.455 12.1419 136.423 12.1419C133.02 12.1419 130.066 14.4082 129.421 18.538H142.21Z" fill="#637280"/>
<path d="M94.8693 5.43138H98.1443C98.1443 5.43138 101.812 5.52635 101.812 1.76663H98.2884C98.2884 1.76663 94.7743 1.71751 94.8693 5.43138Z" fill="#19D5B2"/>
<path d="M11.6642 8.03169C8.85203 8.01055 6.12566 8.99953 3.98104 10.8187V1.57336C3.99339 1.36129 3.96017 1.14905 3.8836 0.950906C3.80703 0.752765 3.6889 0.573331 3.53715 0.424686C3.3854 0.276041 3.20356 0.161637 3.00388 0.0891779C2.8042 0.0167185 2.59131 -0.0121138 2.37955 0.00462202H1.56408C1.35433 -0.0117995 1.14352 0.017593 0.94626 0.0907626C0.749004 0.163932 0.570021 0.279128 0.421722 0.428363C0.273422 0.577597 0.159353 0.7573 0.0874241 0.955012C0.0154952 1.15272 -0.0125726 1.36371 0.00516636 1.57336V19.4582C0.00516636 19.4811 0.00516636 19.5041 0.00516636 19.527C0.00516636 19.5499 0.00516636 19.5729 0.00516636 19.5958V19.6318C0.00248174 21.1645 0.304068 22.6824 0.892441 24.0977C1.48081 25.5129 2.34427 26.7973 3.43274 27.8763C4.52122 28.9553 5.81306 29.8076 7.23337 30.3836C8.65369 30.9596 10.1742 31.248 11.7068 31.2319C13.2457 31.2455 14.7719 30.9518 16.1958 30.3679C17.6196 29.7839 18.9126 28.9216 19.9988 27.8314C21.0851 26.7412 21.9427 25.4451 22.5214 24.0191C23.1002 22.5931 23.3884 21.0659 23.3691 19.527C23.3691 13.0818 18.2274 8.03169 11.6642 8.03169ZM11.7068 27.6327C7.37723 27.6327 3.98104 24.0727 3.98104 19.5303C3.98104 15.1057 7.37723 11.6375 11.7068 11.6375C16.0364 11.6375 19.39 15.0992 19.39 19.527C19.39 24.0727 16.0069 27.6327 11.7068 27.6327Z" fill="#1F8CEB"/>
</svg>
